<svg height="300px" width="300px" fill="#000000" xmlns="http://www.w3.org/2000/svg" xmlns:xlink="http://www.w3.org/1999/xlink" version="1.1" x="0px" y="0px" viewBox="0 0 100 62.8" style="enable-background:new 0 0 100 62.8;" xml:space="preserve"><path d="M3.8,49.9c-0.3,0-0.7-0.1-0.9-0.4c-0.5-0.5-0.5-1.3,0-1.9l12.9-12.9l6.9,6.9L40,24.4l9.1,9.1l9.5-9.5l10.2,10.2L94.9,8  c0.5-0.5,1.3-0.5,1.9,0c0.5,0.5,0.5,1.3,0,1.9l-28,28L58.6,27.7l-9.5,9.5L40,28.1L22.7,45.4l-6.9-6.9L4.7,49.5  C4.5,49.8,4.1,49.9,3.8,49.9z"/><path d="M89.3,18.8c0-0.7,0.6-1.3,1.3-1.3l0,0c0.7,0,1.3,0.6,1.3,1.3l0,0c0,0.7-0.6,1.3-1.3,1.3l0,0C89.9,20.1,89.3,19.5,89.3,18.8z   M81.4,18.8c0-0.7,0.6-1.3,1.3-1.3l0,0c0.7,0,1.3,0.6,1.3,1.3l0,0c0,0.7-0.6,1.3-1.3,1.3l0,0C82,20.1,81.4,19.5,81.4,18.8z   M73.5,18.8c0-0.7,0.6-1.3,1.3-1.3l0,0c0.7,0,1.3,0.6,1.3,1.3l0,0c0,0.7-0.6,1.3-1.3,1.3l0,0C74.1,20.1,73.5,19.5,73.5,18.8z   M65.6,18.8c0-0.7,0.6-1.3,1.3-1.3l0,0c0.7,0,1.3,0.6,1.3,1.3l0,0c0,0.7-0.6,1.3-1.3,1.3l0,0C66.2,20.1,65.6,19.5,65.6,18.8z   M57.7,18.8c0-0.7,0.6-1.3,1.3-1.3l0,0c0.7,0,1.3,0.6,1.3,1.3l0,0c0,0.7-0.6,1.3-1.3,1.3l0,0C58.3,20.1,57.7,19.5,57.7,18.8z   M49.8,18.8c0-0.7,0.6-1.3,1.3-1.3l0,0c0.7,0,1.3,0.6,1.3,1.3l0,0c0,0.7-0.6,1.3-1.3,1.3l0,0C50.4,20.1,49.8,19.5,49.8,18.8z   M41.9,18.8c0-0.7,0.6-1.3,1.3-1.3l0,0c0.7,0,1.3,0.6,1.3,1.3l0,0c0,0.7-0.6,1.3-1.3,1.3l0,0C42.5,20.1,41.9,19.5,41.9,18.8z   M34,18.8c0-0.7,0.6-1.3,1.3-1.3l0,0c0.7,0,1.3,0.6,1.3,1.3l0,0c0,0.7-0.6,1.3-1.3,1.3l0,0C34.6,20.1,34,19.5,34,18.8z M26.1,18.8  c0-0.7,0.6-1.3,1.3-1.3l0,0c0.7,0,1.3,0.6,1.3,1.3l0,0c0,0.7-0.6,1.3-1.3,1.3l0,0C26.7,20.1,26.1,19.5,26.1,18.8z M18.3,18.8  c0-0.7,0.6-1.3,1.3-1.3l0,0c0.7,0,1.3,0.6,1.3,1.3l0,0c0,0.7-0.6,1.3-1.3,1.3l0,0C18.9,20.1,18.3,19.5,18.3,18.8z M10.4,18.8  c0-0.7,0.6-1.3,1.3-1.3l0,0c0.7,0,1.3,0.6,1.3,1.3l0,0c0,0.7-0.6,1.3-1.3,1.3l0,0C11,20.1,10.4,19.5,10.4,18.8z M2.5,18.8  c0-0.7,0.6-1.3,1.3-1.3l0,0c0.7,0,1.3,0.6,1.3,1.3l0,0c0,0.7-0.6,1.3-1.3,1.3l0,0C3.1,20.1,2.5,19.5,2.5,18.8z"/><path d="M89.3,43.7c0-0.7,0.6-1.3,1.3-1.3l0,0c0.7,0,1.3,0.6,1.3,1.3l0,0c0,0.7-0.6,1.3-1.3,1.3l0,0C89.9,45,89.3,44.4,89.3,43.7z   M81.4,43.7c0-0.7,0.6-1.3,1.3-1.3l0,0c0.7,0,1.3,0.6,1.3,1.3l0,0c0,0.7-0.6,1.3-1.3,1.3l0,0C82,45,81.4,44.4,81.4,43.7z M73.5,43.7  c0-0.7,0.6-1.3,1.3-1.3l0,0c0.7,0,1.3,0.6,1.3,1.3l0,0c0,0.7-0.6,1.3-1.3,1.3l0,0C74.1,45,73.5,44.4,73.5,43.7z M65.6,43.7  c0-0.7,0.6-1.3,1.3-1.3l0,0c0.7,0,1.3,0.6,1.3,1.3l0,0c0,0.7-0.6,1.3-1.3,1.3l0,0C66.2,45,65.6,44.4,65.6,43.7z M57.7,43.7  c0-0.7,0.6-1.3,1.3-1.3l0,0c0.7,0,1.3,0.6,1.3,1.3l0,0c0,0.7-0.6,1.3-1.3,1.3l0,0C58.3,45,57.7,44.4,57.7,43.7z M49.8,43.7  c0-0.7,0.6-1.3,1.3-1.3l0,0c0.7,0,1.3,0.6,1.3,1.3l0,0c0,0.7-0.6,1.3-1.3,1.3l0,0C50.4,45,49.8,44.4,49.8,43.7z M41.9,43.7  c0-0.7,0.6-1.3,1.3-1.3l0,0c0.7,0,1.3,0.6,1.3,1.3l0,0c0,0.7-0.6,1.3-1.3,1.3l0,0C42.5,45,41.9,44.4,41.9,43.7z M34,43.7  c0-0.7,0.6-1.3,1.3-1.3l0,0c0.7,0,1.3,0.6,1.3,1.3l0,0c0,0.7-0.6,1.3-1.3,1.3l0,0C34.6,45,34,44.4,34,43.7z M26.1,43.7  c0-0.7,0.6-1.3,1.3-1.3l0,0c0.7,0,1.3,0.6,1.3,1.3l0,0c0,0.7-0.6,1.3-1.3,1.3l0,0C26.7,45,26.1,44.4,26.1,43.7z M18.3,43.7  c0-0.7,0.6-1.3,1.3-1.3l0,0c0.7,0,1.3,0.6,1.3,1.3l0,0c0,0.7-0.6,1.3-1.3,1.3l0,0C18.9,45,18.3,44.4,18.3,43.7z M10.4,43.7  c0-0.7,0.6-1.3,1.3-1.3l0,0c0.7,0,1.3,0.6,1.3,1.3l0,0c0,0.7-0.6,1.3-1.3,1.3l0,0C11,45,10.4,44.4,10.4,43.7z M2.5,43.7  c0-0.7,0.6-1.3,1.3-1.3l0,0c0.7,0,1.3,0.6,1.3,1.3l0,0c0,0.7-0.6,1.3-1.3,1.3l0,0C3.1,45,2.5,44.4,2.5,43.7z"/><path d="M19.4,20.8l-0.9-0.9c0,0-0.1-0.1-0.1-0.1L11.7,13c-0.5-0.5-0.5-1.3,0-1.9c0.5-0.5,1.3-0.5,1.9,0l4.6,4.6V3.3  c0-0.7,0.6-1.3,1.3-1.3c0.7,0,1.3,0.6,1.3,1.3v12.5l4.6-4.6c0.5-0.5,1.3-0.5,1.9,0c0.5,0.5,0.5,1.3,0,1.9L19.4,20.8z"/><path d="M74.7,60.8c-0.7,0-1.3-0.6-1.3-1.3V46.9l-4.6,4.6c-0.5,0.5-1.3,0.5-1.9,0c-0.5-0.5-0.5-1.3,0-1.9l7.7-7.8l7.8,7.8  c0.5,0.5,0.5,1.3,0,1.9c-0.5,0.5-1.3,0.5-1.9,0l-4.6-4.6v12.6C76.1,60.2,75.5,60.8,74.7,60.8z"/></svg>